<svg xmlns="http://www.w3.org/2000/svg" xmlns:xlink="http://www.w3.org/1999/xlink" id="Layer_1" x="0px" y="0px" viewBox="0 0 119.4 13.8" style="enable-background:new 0 0 119.4 13.8;" xml:space="preserve"><style type="text/css">	.st0{fill-rule:evenodd;clip-rule:evenodd;fill:#EC0000;}	.st1{fill:#EC0000;}</style><g id="Footer">	<g id="Footer-M&#xF3;dulos" transform="translate(-162.000000, -528.000000)">		<path id="Fill-1" class="st0" d="M281.4,533.5c0,0.4,0,0.9-0.1,1.1c-0.3,0-0.6-0.1-1-0.1c-0.3,0-0.6,0-0.9,0.1v5.1H278v-6   c0.6-0.2,1.5-0.3,2.2-0.3C280.6,533.4,281.1,533.4,281.4,533.5z M272.8,536.1h2.9c0-1-0.5-1.6-1.4-1.6   C273.3,534.5,272.9,535.1,272.8,536.1z M276.9,537.2h-4.1c0.2,1.1,0.8,1.6,1.9,1.6c0.7,0,1.4-0.2,2.1-0.5c0,0.4-0.1,0.8-0.2,1.2   c-0.6,0.3-1.2,0.4-1.9,0.4c-2.1,0-3.2-1.2-3.2-3.3c0-1.8,0.8-3.2,2.8-3.2c1.8,0,2.6,1.2,2.6,2.8   C276.9,536.6,276.9,536.9,276.9,537.2z M269.1,538.4v-3.7c-0.3-0.1-0.7-0.1-1-0.1c-1.3,0-1.9,0.8-1.9,2.2c0,1.2,0.5,2.1,1.6,2.1   C268.4,538.9,268.8,538.7,269.1,538.4z M270.4,531.4v8.4h-1.2l-0.1-0.8c-0.3,0.6-0.8,0.9-1.7,0.9c-1.5,0-2.6-1.2-2.6-3.2   c0-2.1,1.1-3.3,3.3-3.3c0.3,0,0.7,0,1,0.1v-2C269.5,531.4,270,531.4,270.4,531.4z M263.9,535.7v4h-1.3V536c0-0.9-0.3-1.4-1.6-1.4   c-0.3,0-0.7,0-1,0.1v5.1h-1.3v-6c0.8-0.2,1.7-0.3,2.3-0.3C263.2,533.4,263.9,534.3,263.9,535.7z M256.1,538.4v-3.8   c-0.3-0.1-0.6-0.1-0.9-0.1c-1.3,0-1.9,0.8-1.9,2.2c0,1.2,0.5,2.1,1.6,2.1C255.3,538.9,255.7,538.7,256.1,538.4z M257.3,533.8v6   h-1.2l-0.1-0.7c-0.3,0.5-0.8,0.9-1.6,0.9c-1.5,0-2.6-1.2-2.6-3.2c0-2.1,1.1-3.3,3.3-3.3C256,533.4,256.7,533.5,257.3,533.8z    M250.5,538.8c0.4,0,0.7-0.1,1-0.2c0,0.4-0.1,0.8-0.2,1.1c-0.4,0.1-0.7,0.2-1.1,0.2c-1.2,0-2-0.6-2-2.1v-6.3   c0.4-0.1,0.9-0.2,1.3-0.2v2.3h2c0,0.4-0.1,0.8-0.1,1.1h-1.9v3C249.5,538.5,249.8,538.8,250.5,538.8z M246.9,535.7v4h-1.3V536   c0-0.9-0.3-1.4-1.6-1.4c-0.3,0-0.7,0-1,0.1v5.1h-1.3v-6c0.8-0.2,1.7-0.3,2.3-0.3C246.2,533.4,246.9,534.3,246.9,535.7z M239,538.4   v-3.8c-0.3-0.1-0.6-0.1-0.9-0.1c-1.3,0-1.9,0.8-1.9,2.2c0,1.2,0.5,2.1,1.6,2.1C238.3,538.9,238.7,538.7,239,538.4z M240.3,533.8v6   h-1.2l-0.1-0.7c-0.3,0.5-0.8,0.9-1.6,0.9c-1.5,0-2.6-1.2-2.6-3.2c0-2.1,1.1-3.3,3.3-3.3C239,533.4,239.7,533.5,240.3,533.8z    M228.7,539.5c0-0.5,0.1-0.8,0.2-1.2c0.7,0.3,1.5,0.5,2.1,0.5c1.1,0,1.7-0.4,1.7-1.1c0-0.7-0.4-1-1.5-1.5l-0.6-0.3   c-1.1-0.5-1.8-1.1-1.8-2.4c0-1.4,0.9-2.2,2.8-2.2c0.8,0,1.5,0.1,2.1,0.4c0,0.5-0.1,0.9-0.2,1.2c-0.6-0.2-1.4-0.4-1.9-0.4   c-1,0-1.5,0.4-1.5,1c0,0.6,0.5,1,1.3,1.4l0.6,0.3c1.5,0.6,2.1,1.3,2.1,2.5c0,1.4-1,2.3-3,2.3C230.1,540,229.3,539.8,228.7,539.5z    M222.4,532.3l-1.9-3.5c-0.1-0.3-0.2-0.6-0.3-0.8l-0.1,0.1c-0.5,0.9-0.5,1.9,0,2.8l1.6,2.8c0.5,0.9,0.5,1.9,0,2.8l-0.1,0.1   c-0.1-0.3-0.2-0.6-0.3-0.8l-2.3-4.2c-0.1-0.3-0.2-0.6-0.3-0.8l-0.1,0.1c-0.5,0.9-0.5,1.9,0,2.8l1.6,2.8c0.5,0.9,0.5,1.9,0,2.8   l-0.1,0.1c-0.1-0.3-0.2-0.6-0.3-0.8l-1.9-3.5c-0.3-0.5-0.4-1-0.4-1.5c-2.1,0.6-3.5,1.8-3.5,3.1c0,1.9,2.8,3.5,6.2,3.5   s6.2-1.6,6.2-3.5c0-1.4-1.4-2.6-3.5-3.1C222.8,533.2,222.7,532.7,222.4,532.3z"></path>	</g></g><path class="st1" d="M1.3,5.1c0-0.4,0.1-0.6,0.2-0.8C1.7,4.2,2,4.1,2.4,4.1c0.2,0,1.2,0,1.5,0.1l0-1c-0.5-0.1-1.4,0-1.8,0 c-0.6,0-1,0.1-1.4,0.3C0.5,3.6,0.3,3.8,0.1,4.1C0,4.3,0,4.6,0,5v0.7h0v0.8h0v5.4h1.3V6.9h1.3V5.7H1.3V5.1z"></path><path class="st1" d="M9.9,11.1c0-0.1-0.1-0.4-0.1-0.7c0-0.3,0-0.7,0-1.2V7.8c0-0.2,0-0.4,0-0.6c0-0.2,0-0.3-0.1-0.4 c0-0.1-0.1-0.3-0.2-0.4S9.4,6.2,9.3,6.1C9.2,6,9.1,5.9,8.9,5.9C8.7,5.8,8.6,5.7,8.4,5.6C8.1,5.6,7.9,5.5,7.6,5.5 c-0.3,0-0.6-0.1-0.9,0c-0.3,0-0.6,0-1,0.1c-0.3,0-0.6,0.1-0.8,0.2C4.6,5.7,4.4,5.8,4.2,5.9C4,6,3.9,6.2,3.7,6.3 C3.6,6.4,3.5,6.6,3.4,6.7h1.5C5,6.7,5,6.6,5.1,6.6c0.2-0.1,0.3-0.2,0.6-0.2c0.2,0,0.5-0.1,0.8-0.1c0.3,0,0.6,0,0.9,0.1 S7.9,6.6,8,6.7C8.2,6.8,8.3,6.9,8.3,7c0.1,0.2,0.1,0.3,0.1,0.6c0,0,0,0.1,0,0.1c0,0,0,0.1,0,0.2C8.2,7.9,7.8,8,7.4,8.1 C7,8.1,6.6,8.2,6,8.2c-0.3,0-0.5,0.1-0.7,0.1C5.1,8.3,5,8.4,4.8,8.4c-0.2,0-0.3,0.1-0.5,0.1C4.2,8.6,4,8.7,3.9,8.7 C3.7,8.8,3.6,8.9,3.5,9C3.4,9.1,3.3,9.2,3.2,9.3C3.1,9.5,3,9.6,3,9.7c0,0.1-0.1,0.3-0.1,0.4c0,0.3,0.1,0.5,0.2,0.7 c0.1,0.2,0.3,0.4,0.5,0.6c0.2,0.2,0.5,0.3,0.9,0.4S5.2,12,5.6,12c0.3,0,0.5,0,0.8-0.1c0.2,0,0.5-0.1,0.7-0.2 c0.2-0.1,0.5-0.2,0.7-0.3C8,11.3,8.3,11.2,8.5,11c0,0.1,0.1,0.3,0.1,0.4c0,0.1,0.1,0.2,0.2,0.4h1.4c-0.1-0.1-0.1-0.2-0.2-0.4 C9.9,11.3,9.9,11.2,9.9,11.1z M8.4,8.9v0.2c0,0.2,0,0.4-0.1,0.6c0,0.2-0.1,0.3-0.2,0.4c-0.1,0.2-0.2,0.3-0.4,0.4 c-0.2,0.1-0.3,0.2-0.5,0.3C7.1,11,6.9,11,6.7,11.1c-0.2,0-0.5,0.1-0.7,0.1c-0.3,0-0.5,0-0.7-0.1c-0.2,0-0.4-0.1-0.5-0.2 c-0.1-0.1-0.2-0.2-0.3-0.3c-0.1-0.1-0.1-0.2-0.1-0.4c0-0.1,0-0.2,0-0.3c0-0.1,0.1-0.2,0.1-0.2c0.1-0.1,0.1-0.1,0.2-0.2 C4.8,9.4,4.9,9.3,5,9.3c0.1,0,0.3-0.1,0.5-0.1c0.2,0,0.4-0.1,0.7-0.1C6.7,9,7.1,9,7.5,8.9c0.4-0.1,0.7-0.1,0.9-0.2L8.4,8.9z"></path><path class="st1" d="M26.5,8.9c0,0.5-0.1,0.9-0.2,1.2s-0.4,0.5-0.7,0.7s-0.7,0.2-1.1,0.2c-0.4,0-0.7-0.1-1-0.2 c-0.3-0.2-0.5-0.4-0.5-0.7C22.8,10,22.7,9.6,22.7,9V5.6h-1.3v3.9c0,0.4,0,0.8,0.1,1c0.1,0.3,0.2,0.6,0.4,0.8 c0.2,0.2,0.5,0.4,0.9,0.5c0.4,0.1,0.8,0.2,1.3,0.2c1.1,0,1.9-0.4,2.5-1.1v1h1.2V5.6h-1.3L26.5,8.9z"></path><path class="st1" d="M38.8,6.1c-0.4-0.3-1-0.5-1.8-0.5c-1,0-1.8,0.4-2.5,1.1c-0.2-0.3-0.4-0.6-0.8-0.8c-0.4-0.2-0.9-0.3-1.4-0.3 c-0.5,0-1,0.1-1.4,0.3c-0.4,0.2-0.7,0.4-1,0.7V5.7h-1.2v6.2H30V8.7c0-0.6,0.1-1,0.2-1.3c0.1-0.3,0.4-0.5,0.7-0.7 c0.3-0.2,0.7-0.2,1-0.2c0.5,0,0.9,0.1,1.1,0.4s0.3,0.6,0.3,1.1v4.1h1.3V8.3c0-0.6,0.2-1.1,0.6-1.4c0.4-0.3,0.8-0.4,1.4-0.4 c0.3,0,0.6,0.1,0.8,0.2c0.2,0.1,0.4,0.3,0.5,0.4c0.1,0.2,0.1,0.5,0.1,0.9v5.8h1.3V7.6C39.5,6.9,39.3,6.4,38.8,6.1z"></path><path class="st1" d="M15.9,6.2c-0.5-0.3-1.2-0.5-2-0.5c-0.6,0-1.2,0.1-1.7,0.4S11.2,6.7,11,7.2c-0.3,0.5-0.4,1-0.4,1.7 c0,1,0.3,1.8,0.9,2.3c0.6,0.5,1.4,0.8,2.4,0.8c0.8,0,1.5-0.2,2-0.6c0.5-0.3,0.8-0.8,1-1.4h-1.3c-0.1,0.3-0.3,0.6-0.5,0.8 c-0.3,0.2-0.7,0.4-1.2,0.4c-0.6,0-1.1-0.2-1.5-0.6c-0.4-0.4-0.6-0.9-0.6-1.8c0-0.8,0.2-1.4,0.6-1.7c0.4-0.4,0.9-0.6,1.5-0.6 c0.4,0,0.8,0.1,1.1,0.3c0.2,0.2,0.4,0.4,0.5,0.6h1.3C16.6,6.9,16.3,6.5,15.9,6.2z"></path><path class="st1" d="M19.5,10.9c-0.1-0.1-0.2-0.1-0.2-0.2c0-0.1-0.1-0.3-0.1-0.6V6.7h1.3V5.6h-1.3V4l-1.4,0l0.1,1.5h-1.2l1.1,1.2h0 V10c0,0.6,0.1,1,0.2,1.2c0.1,0.2,0.3,0.4,0.6,0.5c0.3,0.1,0.6,0.2,1.1,0.2c0.3,0,0.6,0,1-0.1l0-0.9c-0.2,0-0.6,0-0.8,0 C19.8,10.9,19.6,10.9,19.5,10.9z"></path></svg>