<svg xmlns="http://www.w3.org/2000/svg" id="Layer_1" data-name="Layer 1" viewBox="0 0 2545.75 684.2"><defs><style>.cls-1{fill:#fff;}</style></defs><path class="cls-1" d="M2634.24,223.79q-41.11-33.07-117.42-33.12-97.59,0-158.53,70.23-14.84-33.21-51.18-51.72t-93-18.51q-50.89,0-90.83,18T2059.39,256V199.2h-77.86V601.55h86.75V393q0-54.86,14-84c9.25-19.42,24.32-34.21,44.91-44.29s43.2-15.15,67.61-15.15c32,0,55.17,7.53,69.23,22.69s21.15,37.83,21.15,68.14V601.55h86.74V368.07q0-62.07,35.76-90.29t89.83-28.22c20,0,37.39,3.63,52.18,11s25,17,30.67,28.95,8.44,31.57,8.44,58.89V721.05h86.74V325.78Q2675.25,256.92,2634.24,223.79Z" transform="translate(-129.78 -36.85)"></path><path class="cls-1" d="M1837.8,408q0,51.45-14.16,78.5t-48.27,42.73a172.44,172.44,0,0,1-73,15.7q-38.92,0-65.24-15.33c-17.6-10.26-29.13-24.23-34.57-42.2q-5.31-18.51-5.26-71.86V192.94h-86.75v249q0,43.56,5.26,63.52c5.08,20,14,36.75,26.68,50.54s32,25.14,58.07,34.21,54.17,13.61,84.3,13.61q102.22,0,161.79-68.32v66.15h77.86V192.94H1837.8V408Z" transform="translate(-129.78 -36.85)"></path><path class="cls-1" d="M1388.9,533.13c-6.89-3.27-11.79-7.72-14.88-13.25s-4.54-18.06-4.54-37.57v-216h86.75V193.84h-86.75V92.94l-90.83,1.36,4.09,99.54h-76.32l73.32,76.41h-1.09V478.32c0,41,7.62,67.87,14.61,80.58s19.24,23.05,36.48,30.94,41.56,11.8,73,11.8c19.23,0,40.92-2,65.24-6.08l.36-60.16c-15.7,1.81-40.47,2.72-50.09,2.72C1405.6,538,1395.8,536.39,1388.9,533.13Z" transform="translate(-129.78 -36.85)"></path><path class="cls-1" d="M1153,231.87Q1104.12,200,1027.12,200q-61,0-112.7,23.41-51.87,23.4-77.13,70.32T812,403.09q0,96.65,58.89,148.37t155.71,51.72q77.31,0,130.4-37.39,47.51-33.48,62.79-90H1139q-10.62,32.39-34.57,50.18c-21,15.7-47.37,23.59-78.77,23.59q-58.8,0-95.27-35.3T893.91,401.19q0-76.63,37.93-112.16t98.54-35.48q40.15,0,68.42,19.69,21.24,14.83,32.85,40.38h81.85Q1198.26,261.5,1153,231.87Z" transform="translate(-129.78 -36.85)"></path><path class="cls-1" d="M766.33,546.74c-1.82-8.44-3.18-22.69-4-42.65S761,458.36,761,426.78V336.22c0-15.07-.36-27.86-1.09-38.3s-1.81-18.6-3.26-24.4A105.9,105.9,0,0,0,746,247.84a93.71,93.71,0,0,0-16.42-20.78c-6.45-6.17-14.7-11.71-24.78-16.88a219.27,219.27,0,0,0-35.57-13.7c-13.7-4.09-29.4-7.08-47.18-9.08a539.28,539.28,0,0,0-59.53-3A515.68,515.68,0,0,0,500.36,188a347,347,0,0,0-54.17,10.7,227.79,227.79,0,0,0-44.28,17.24,137.31,137.31,0,0,0-32.49,23.33,134.81,134.81,0,0,0-20.69,26.85h99a71.93,71.93,0,0,1,11.53-8.16c9.71-5.63,22.14-9.89,37.2-12.71s32.85-4.26,53.27-4.26c21.86,0,41.1,1.9,57.53,5.72s30.3,9.61,41.37,17.24A51.32,51.32,0,0,1,667.05,287c4.09,9.71,6.18,21.5,6.18,35.39,0,1.27,0,3.35-.1,6.35s-.18,6.71-.36,11.43c-16.51,4.54-37.75,8.71-63.52,12.61S553,360.36,518,363.62c-17.24,1.64-32.22,3.27-45.1,5s-23.5,3.45-32,5.17a265.13,265.13,0,0,0-32.94,9.35,211,211,0,0,0-29.49,13,129.42,129.42,0,0,0-25.05,17.15,117,117,0,0,0-19.87,22,95.45,95.45,0,0,0-12.89,25.59,97,97,0,0,0,7.08,73.95q11.29,20.68,34,36.75c15.06,10.8,33.48,18.87,55.08,24.23s46.46,8.07,74.59,8.07a349.61,349.61,0,0,0,49.45-3.35,303.23,303.23,0,0,0,46.19-10,295.12,295.12,0,0,0,45.55-18.06A413.06,413.06,0,0,0,680,544.83a145.63,145.63,0,0,0,6.08,27,116.33,116.33,0,0,0,10.71,23.41h90.74a147,147,0,0,1-13.25-23.77A122.85,122.85,0,0,1,766.33,546.74ZM673,406.18l-.27,12.43c0,15-1.18,28-3.54,39.38s-5.81,20.78-10.52,28.4A106.34,106.34,0,0,1,635.11,513a142.82,142.82,0,0,1-33.84,20.24,197.35,197.35,0,0,1-41.83,12.88,254.2,254.2,0,0,1-47.37,4.27c-16.88,0-31.67-1.55-44.56-4.54s-23.59-7.53-32.39-13.52S419.78,519.52,415.43,512a48.65,48.65,0,0,1-6.53-24.86,47.86,47.86,0,0,1,3-16.88A52.71,52.71,0,0,1,421,454.91a64.94,64.94,0,0,1,14.61-12.8,87.89,87.89,0,0,1,19.69-9.25c7.45-2.54,17.43-4.9,30-7.17s27.86-4.36,45.73-6.44q47.37-5.31,82.85-11.71T673,393.66Z" transform="translate(-129.78 -36.85)"></path><path class="cls-1" d="M215.53,162.36q0-36.08,16.33-49.28t55.81-13.15c16.06,0,77.85,1.27,95.82,3.72L384.3,40c-29.49-4.54-89-2.91-113.42-2.91q-56.76,0-88.2,16.43T138.85,96.48q-9.12,19.6-9.07,60.07V199.2h.54v52.72h-.54V601.55h86.74V274.88h86V199.11h-87Z" transform="translate(-129.78 -36.85)"></path><rect class="cls-1" y="162.26" width="4.81" height="53.27"></rect></svg>