<?xml version="1.0" encoding="UTF-8"?>
<svg width="640px" height="384px" viewBox="0 0 640 384" version="1.1" xmlns="http://www.w3.org/2000/svg" xmlns:xlink="http://www.w3.org/1999/xlink">
    <!-- Generator: Sketch 58 (84663) - https://sketch.com -->
    <title>Shape</title>
    <desc>Created with Sketch.</desc>
    <g id="Page-1" stroke="none" stroke-width="1" fill="none" fill-rule="evenodd">
        <g id="Artboard" transform="translate(-803.000000, -325.000000)" fill="#FFFFFF" fill-rule="nonzero">
            <g id="graduation-cap" transform="translate(803.000000, 324.000000)">
                <path d="M612.16,90.99 L347.16,5.31 C329.35,-0.44 310.66,-0.44 292.85,5.31 L27.85,90.99 C10.94,96.46 0,111.38 0,129 C0,146.62 10.94,161.54 27.84,167.01 L57.55,176.61 C54.25,182.79 51.81,189.44 50.22,196.41 C39.53,201.59 32,212.32 32,225 C32,237.73 39.57,248.52 50.33,253.67 L32.28,365.53 C30.67,375.52 36.19,385 43.62,385 L84.37,385 C91.8,385 97.33,375.52 95.71,365.53 L77.67,253.67 C88.43,248.52 96,237.73 96,225 C96,214.4 90.51,205.46 82.57,199.63 C84.06,194.97 86.37,190.77 89.14,186.82 L142.61,204.11 L128,321 C128,356.35 213.96,385 320,385 C426.04,385 512,356.35 512,321 L497.39,204.11 L612.16,167 C629.06,161.54 640,146.62 640,129 C640,111.38 629.06,96.46 612.16,90.99 Z M479.48,318.86 C468.72,330.19 414.04,353 320,353 C225.96,353 171.28,330.19 160.52,318.86 L173.61,214.13 L292.85,252.68 C295.45,253.52 318.57,261.91 347.16,252.68 L466.4,214.13 L479.48,318.86 Z M602.28,136.58 L337.28,222.26 C325.97,225.92 314.03,225.92 302.72,222.26 L127.05,165.46 L322.94,128.72 C331.63,127.1 337.35,118.74 335.72,110.05 C334.1,101.35 325.56,95.66 317.06,97.28 L113.28,135.48 C100.88,137.8 89.77,143.13 80.2,150.31 L37.71,136.57 C29.86,134.02 30.25,123.83 37.71,121.42 L302.71,35.74 C317.81,30.86 330.55,33.57 337.27,35.74 L602.27,121.42 C609.66,123.81 610.18,134.02 602.28,136.58 L602.28,136.58 Z" id="Shape"></path>
            </g>
        </g>
    </g>
</svg>